<svg xmlns="http://www.w3.org/2000/svg" fill="none" viewBox="0 0 94 56"><path fill="#7FBA06" fill-rule="evenodd" d="M42.903 32.218c4.872-1.29 9.178-.131 12.727 3.494 1.83 1.867 2.883 4.165 3.168 6.769v.002c.385 3.525-.613 6.648-2.963 9.299-2.093 2.359-4.74 3.699-7.864 4.11-.528.069-1.058.073-1.597.108-4.49-.135-8.086-1.953-10.613-5.733-1.03-1.545-1.61-3.264-1.816-5.114-.668-5.973 3.237-11.418 8.958-12.935m6.93 8.242c-1.618-1.838-4.337-2.105-6.264-.597-1.286 1.005-1.878 2.366-1.925 3.771.002 1.174.248 2.07.745 2.895 1.6 2.653 5.165 3.086 7.286.89h.002a5.15 5.15 0 0 0 .156-6.959M80.42 10.552c3.313-.435 6.341.316 9.012 2.337 2.477 1.877 4.031 4.372 4.447 7.466v-.004c.563 4.194-.85 7.686-4.054 10.427-1.831 1.568-3.991 2.423-6.379 2.702-.459.053-.924.06-1.46.092-4.251-.166-7.732-1.91-10.079-5.605-2.946-4.64-2.097-10.577 1.993-14.364 1.845-1.707 4.028-2.723 6.52-3.051m4.832 8.066c-1.781-1.84-4.617-1.816-6.368.053-1.636 1.744-1.743 4.52-.232 6.372.885 1.086 2.028 1.662 3.436 1.68a4.1 4.1 0 0 0 2.075-.524c2.733-1.51 3.278-5.323 1.09-7.582M22.648 10.4c4.791.26 8.604 2.438 10.734 7.097l.002.002c2.03 4.442.788 9.762-2.875 12.99-1.931 1.7-4.17 2.71-6.719 2.991-5.297.583-10.31-2.247-12.386-7.078-1.917-4.46-.688-9.754 2.977-12.947 1.917-1.67 4.136-2.646 6.653-2.95.459-.056.924-.062 1.614-.105m-.27 6.865a3.9 3.9 0 0 0-1.788.4c-2.916 1.387-3.598 5.384-1.317 7.717 1.743 1.783 4.507 1.81 6.254.033l-.002-.002c1.194-1.215 1.617-2.694 1.308-4.36-.44-2.372-2.463-3.843-4.456-3.788" clip-rule="evenodd"/><path fill="#7FBA06" d="M59.848 10.965c.082.006.164 0 .246 0h6.991c.082 0 .164.004.246 0 .16-.009.219.071.21.223-.006.095 0 .19 0 .287v21.047c0 .572.052.499-.503.5H59.8c-.12 0-.168-.063-.166-.178V21.951l-.002-.002V11.51c0-.11.006-.22 0-.33-.008-.155.058-.225.215-.215M7.472.168c.428 0 .416-.043.416.427v32.069c-.004.352-.004.355-.359.357H.416c-.453 0-.412.034-.412-.423V16.584H0V.57C0 .127-.004.168.4.168z"/><path fill="#7FBA06" fill-rule="evenodd" d="M43.559 10.813c2.322-.636 4.607-.495 6.84.416.23.095.388.072.593-.065 2.492-1.677 5.76-.347 6.391 2.593.06.27.06.542.07.765.008 1.077-.332 1.976-1.002 2.747v-.004c-.157.183-.215.345-.151.583 1.402 5.257-1.626 10.339-6.52 11.935-4.016 1.311-7.654.496-10.732-2.423-1.743-1.652-2.687-3.74-2.9-6.151-.422-4.764 2.748-9.12 7.41-10.396m3.921 5.931c-.475-.143-.964-.168-1.456-.125-1.366.121-2.349.796-2.912 2.056-.297.662-.37 1.364-.321 2.08.14 2.073 1.593 3.453 3.58 3.437 1.652.004 2.923-.895 3.405-2.417v.002c.3-.954.294-1.91-.033-2.854-.383-1.106-1.14-1.838-2.263-2.179" clip-rule="evenodd"/><path fill="#7FBA06" d="M63.58 0c2.52.006 4.267 2.11 4.263 4.272-.005 2.279-1.883 4.29-4.266 4.261a4.254 4.254 0 0 1-4.263-4.265c.004-2.362 1.91-4.274 4.265-4.268"/></svg>
